<?xml version="1.0" encoding="UTF-8" standalone="no"?>
<svg
   viewBox="0 0 512 512"
   version="1.1"
   id="svg1"
   sodipodi:docname="headphones.svg"
   inkscape:version="1.4 (86a8ad7, 2024-10-11)"
   xmlns:inkscape="http://www.inkscape.org/namespaces/inkscape"
   xmlns:sodipodi="http://sodipodi.sourceforge.net/DTD/sodipodi-0.dtd"
   xmlns="http://www.w3.org/2000/svg"
   xmlns:svg="http://www.w3.org/2000/svg">
  <defs
     id="defs1" />
  <sodipodi:namedview
     id="namedview1"
     pagecolor="#505050"
     bordercolor="#ffffff"
     borderopacity="1"
     inkscape:showpageshadow="0"
     inkscape:pageopacity="0"
     inkscape:pagecheckerboard="1"
     inkscape:deskcolor="#505050"
     inkscape:zoom="1.5097656"
     inkscape:cx="256"
     inkscape:cy="256"
     inkscape:window-width="1920"
     inkscape:window-height="991"
     inkscape:window-x="-9"
     inkscape:window-y="-9"
     inkscape:window-maximized="1"
     inkscape:current-layer="svg1" />
  <path
     d="M512 287.9l-.0042 112C511.1 444.1 476.1 480 432 480c-26.47 0-48-21.56-48-48.06V304.1C384 277.6 405.5 256 432 256c10.83 0 20.91 2.723 30.3 6.678C449.7 159.1 362.1 80.13 256 80.13S62.29 159.1 49.7 262.7C59.09 258.7 69.17 256 80 256C106.5 256 128 277.6 128 304.1v127.9C128 458.4 106.5 480 80 480c-44.11 0-79.1-35.88-79.1-80.06L0 288c0-141.2 114.8-256 256-256c140.9 0 255.6 114.5 255.1 255.3C511.1 287.5 511.1 287.7 512 287.9z"
     id="path1"
     style="fill:#ffffff" />
</svg>
